# xmcd
#
# Track frame offsets:
#	150
#	17307
#	33359
#	47534
#	60436
#	71671
#	84871
#	95578
#	110101
#	122518
#	135705
#	147655
#	162430
#	173710
#	189020
#	201705
#	216635
#	230712
#
# Disc length: 3227 seconds
#
# Revision: 0
# Processed by: cddbd v1.5.2PL0 Copyright (c) Steve Scherf et al.
# Submitted via: EZCDAudioConverter 2.1.1.1
#
DISCID=040c9912
DTITLE=Giwrgos Katsaros - To Xryso Saxofono Cd 3
DYEAR=2015
DGENRE=Instrumental
TTITLE0=Forever And Ever
TTITLE1=Na Moyna Theos (Alma Corazon Y Vida)
TTITLE2=Ateleiwto Taksidi
TTITLE3=Einai To Kati Poy Menei
TTITLE4=Oti Kai Na Ginei Thymhsoy
TTITLE5=San Trelo Forthgo
TTITLE6=O Stamoylhs O Loxias
TTITLE7=Allh Mia Mera
TTITLE8=Ex Epafhs
TTITLE9=Ta Matia Soy
TTITLE10=Eisai Theos
TTITLE11=Mh Milas
TTITLE12=Eksartatai
TTITLE13=Roz
TTITLE14=Antra Moy Paei
TTITLE15=Kardoyla Moy, De Se Malwnw
TTITLE16=Felicita
TTITLE17=Bamboleo
EXTD=
EXTT0=
EXTT1=
EXTT2=
EXTT3=
EXTT4=
EXTT5=
EXTT6=
EXTT7=
EXTT8=
EXTT9=
EXTT10=
EXTT11=
EXTT12=
EXTT13=
EXTT14=
EXTT15=
EXTT16=
EXTT17=
PLAYORDER=
